<?xml version="1.0" encoding="utf-8"?>
<!-- Generator: Adobe Illustrator 17.0.2, SVG Export Plug-In . SVG Version: 6.00 Build 0)  -->
<!DOCTYPE svg PUBLIC "-//W3C//DTD SVG 1.1//EN" "http://www.w3.org/Graphics/SVG/1.1/DTD/svg11.dtd">
<svg version="1.1" id="Layer_1" xmlns="http://www.w3.org/2000/svg" xmlns:xlink="http://www.w3.org/1999/xlink" x="0px" y="0px"
	 width="568px" height="568px" viewBox="0 0 568 568" enable-background="new 0 0 568 568" xml:space="preserve">
<g>
	<path fill="#FFFFFF" d="M568,284c0-31.38-35.79-59.61-92.79-79.2c26.46-54.17,31.8-99.43,9.61-121.62
		c-22.19-22.19-67.45-16.85-121.62,9.61C343.61,35.78,315.38,0,284,0c-31.38,0-59.61,35.78-79.2,92.79
		c-54.17-26.46-99.43-31.8-121.62-9.61c-22.19,22.19-16.85,67.45,9.61,121.62C35.78,224.39,0,252.62,0,284
		c0,31.38,35.78,59.61,92.79,79.2c-26.46,54.17-31.8,99.43-9.61,121.62c22.19,22.19,67.45,16.85,121.62-9.61
		C224.39,532.22,252.62,568,284,568c31.38,0,59.61-35.78,79.2-92.79c54.17,26.46,99.43,31.8,121.62,9.61
		c22.19-22.19,16.85-67.45-9.61-121.62C532.22,343.61,568,315.38,568,284z M477.12,90.88c19.9,19.91,14.52,61.18-10.2,111.18
		c-24.39-7.75-52.29-13.99-82.67-18.31c-4.32-30.38-10.56-58.28-18.31-82.67C415.94,76.36,457.22,70.97,477.12,90.88z
		 M390.56,254.75c8.46,9.81,16.46,19.62,23.95,29.35c-7.5,9.71-15.49,19.48-23.95,29.26c0.37-9.65,0.57-19.45,0.57-29.36
		C391.12,274.12,390.93,264.37,390.56,254.75z M420.08,291.47c17.21,23.05,31.53,45.6,42.57,66.74
		c-22.75,7.07-48.78,12.81-77.16,16.88c1.94-15.21,3.41-31,4.35-47.25C400.62,315.72,410.73,303.56,420.08,291.47z M389.84,240.16
		c-0.95-16.24-2.41-32.04-4.35-47.25c28.5,4.09,54.63,9.86,77.45,16.97c-11.11,21.16-25.5,43.72-42.76,66.77
		C410.79,264.52,400.66,252.31,389.84,240.16z M353.67,352.98c-9.79,9.79-19.67,19.14-29.58,28.03c-12.93,0.68-26.15,1.03-39.6,1.03
		c-13.82,0-27.39-0.37-40.65-1.09c-9.88-8.88-19.75-18.21-29.52-27.98c-9.51-9.51-18.61-19.11-27.27-28.74
		c-0.72-13.29-1.09-26.89-1.09-40.74c0-13.45,0.36-26.67,1.03-39.6c8.89-9.9,18.24-19.79,28.03-29.58
		c9.51-9.51,19.11-18.61,28.73-27.27c13.29-0.72,26.89-1.09,40.74-1.09c13.48,0,26.73,0.36,39.69,1.04
		c9.64,8.68,19.26,17.8,28.79,27.33c9.79,9.79,19.14,19.67,28.03,29.58c0.68,12.93,1.03,26.15,1.03,39.6
		c0,13.84-0.38,27.45-1.09,40.74C372.28,333.86,363.19,343.46,353.67,352.98z M380.03,338.67c-0.95,12.92-2.24,25.5-3.82,37.69
		c-12.16,1.56-24.73,2.82-37.62,3.75c7.09-6.56,14.15-13.35,21.16-20.36C366.73,352.76,373.49,345.73,380.03,338.67z M313.25,390.56
		c-9.78,8.43-19.55,16.4-29.25,23.87c-9.7-7.47-19.47-15.44-29.25-23.87c9.62,0.37,19.37,0.56,29.25,0.56
		S303.63,390.93,313.25,390.56z M229.33,380.03c-12.87-0.95-25.42-2.23-37.56-3.8c-1.58-12.14-2.85-24.68-3.8-37.56
		c6.54,7.06,13.3,14.09,20.28,21.08C215.24,366.73,222.27,373.49,229.33,380.03z M187.89,229.42c0.93-12.89,2.19-25.46,3.75-37.62
		c12.18-1.59,24.77-2.87,37.69-3.82c-7.06,6.54-14.09,13.3-21.08,20.28C201.25,215.27,194.45,222.33,187.89,229.42z M254.64,177.45
		c9.81-8.49,19.62-16.51,29.36-24.03c9.74,7.52,19.55,15.54,29.36,24.03c-9.65-0.37-19.45-0.57-29.36-0.57
		C274.08,176.88,264.29,177.07,254.64,177.45z M338.58,187.89c12.94,0.94,25.55,2.2,37.75,3.77c1.57,12.21,2.83,24.82,3.77,37.75
		c-6.56-7.09-13.35-14.15-20.36-21.16C352.73,201.25,345.67,194.45,338.58,187.89z M375.09,182.51c-15.21-1.94-31-3.4-47.25-4.35
		c-12.16-10.82-24.36-20.95-36.49-30.33c23.05-17.26,45.6-31.66,66.77-42.76C365.23,127.88,371,154.01,375.09,182.51z M284,10.88
		c28.15,0,53.52,33,71.4,85.83c-22.73,11.76-46.86,27.08-71.4,45.51c-24.54-18.43-48.68-33.74-71.4-45.51
		C230.48,43.88,255.85,10.88,284,10.88z M209.88,105.06c21.16,11.11,43.72,25.5,66.76,42.76c-12.13,9.38-24.33,19.52-36.49,30.33
		c-16.24,0.95-32.04,2.41-47.25,4.35C197,154.01,202.77,127.88,209.88,105.06z M90.88,90.88c19.9-19.9,61.18-14.51,111.18,10.2
		c-7.75,24.39-13.99,52.29-18.31,82.67c-30.38,4.32-58.28,10.56-82.67,18.31C76.36,152.06,70.97,110.78,90.88,90.88z M177.45,313.36
		c-8.46-9.78-16.45-19.55-23.95-29.26c7.49-9.73,15.49-19.54,23.95-29.35c-0.37,9.62-0.56,19.37-0.56,29.25
		C176.88,293.91,177.07,303.71,177.45,313.36z M178.16,327.84c0.95,16.19,2.4,31.94,4.34,47.1c-28.35-4.12-54.32-9.9-77-17
		c11.01-21.06,25.29-43.52,42.43-66.47C157.27,303.56,167.38,315.72,178.16,327.84z M178.16,240.16
		c-10.81,12.16-20.95,24.36-30.33,36.49c-17.19-22.95-31.54-45.41-42.62-66.5c22.75-7.15,48.83-12.96,77.29-17.09
		C180.56,208.22,179.1,223.96,178.16,240.16z M11.88,284c0-28,32.65-53.25,84.99-71.12c11.74,22.64,27.01,46.68,45.36,71.12
		c-18.35,24.44-33.62,48.47-45.36,71.12C44.52,337.25,11.88,312,11.88,284z M91.58,476.42c-19.8-19.8-14.57-60.74,9.81-110.38
		c24.32,7.71,52.11,13.91,82.36,18.21c4.31,30.25,10.5,58.05,18.21,82.36C152.32,490.99,111.38,496.22,91.58,476.42z M193.05,385.51
		c15.17,1.93,30.91,3.39,47.1,4.34c12.12,10.78,24.28,20.88,36.37,30.24c-22.95,17.13-45.41,31.42-66.47,42.43
		C202.95,439.83,197.17,413.85,193.05,385.51z M284,556.12c-28,0-53.25-32.65-71.12-84.99c22.64-11.74,46.68-27.01,71.12-45.36
		c24.44,18.35,48.47,33.62,71.12,45.36C337.25,523.48,312,556.12,284,556.12z M357.94,462.51c-21.06-11.01-43.52-25.29-66.47-42.43
		c12.09-9.36,24.25-19.46,36.37-30.24c16.19-0.95,31.94-2.4,47.1-4.34C370.83,413.85,365.05,439.83,357.94,462.51z M476.42,476.42
		c-19.8,19.8-60.74,14.57-110.38-9.81c7.71-24.32,13.91-52.11,18.21-82.36c30.25-4.31,58.05-10.5,82.36-18.21
		C490.99,415.68,496.22,456.62,476.42,476.42z M471.29,355.4c-11.76-22.73-27.08-46.86-45.51-71.4
		c18.43-24.54,33.74-48.68,45.51-71.41c52.83,17.88,85.83,43.26,85.83,71.41C557.11,312.15,524.12,337.52,471.29,355.4z"/>
	<circle fill="#FFFFFF" cx="284" cy="284" r="32.16"/>
</g>
</svg>
