<?xml version="1.0" encoding="utf-8"?>
<!-- Generator: Adobe Illustrator 16.2.0, SVG Export Plug-In . SVG Version: 6.00 Build 0)  -->
<!DOCTYPE svg PUBLIC "-//W3C//DTD SVG 1.1//EN" "http://www.w3.org/Graphics/SVG/1.1/DTD/svg11.dtd">
<svg version="1.1" id="Layer_1" xmlns="http://www.w3.org/2000/svg" xmlns:xlink="http://www.w3.org/1999/xlink" x="0px" y="0px"
	 width="96.47px" height="88.94px" viewBox="0 0 96.47 88.94" enable-background="new 0 0 96.47 88.94" xml:space="preserve">
<g>
	<path fill="#ffffff" d="M29.49,10.23c0,2.14-1.74,3.88-3.88,3.88c-2.14,0-3.88-1.74-3.88-3.88c0-2.14,1.74-3.88,3.88-3.88
		C27.75,6.35,29.49,8.09,29.49,10.23z"/>
	<circle fill="#ffffff" cx="56.12" cy="2.8" r="2.8"/>
	<circle fill="#ffffff" cx="84.82" cy="13.08" r="4.25"/>
	<circle fill="#ffffff" cx="92.85" cy="46.72" r="3.63"/>
	<circle fill="#ffffff" cx="72.98" cy="80.87" r="6.71"/>
	<circle fill="#ffffff" cx="37.72" cy="84.49" r="4.45"/>
	<circle fill="#ffffff" cx="7.56" cy="64.43" r="3.83"/>
	<circle fill="#ffffff" cx="4.78" cy="32.65" r="4.78"/>
	<circle fill="#ffffff" cx="32.25" cy="58.95" r="3.96"/>
	<circle fill="#ffffff" cx="40.73" cy="34.5" r="5.48"/>
	<circle fill="#ffffff" cx="71.44" cy="31.1" r="3.69"/>
	<circle fill="#ffffff" cx="61.6" cy="60.42" r="4.24"/>
	<g>
		<path fill="#ffffff" d="M37.39,85.65L36.95,85l0.77-0.51l-0.29-0.87c-0.46,0.16-0.64,0.6-0.62,0.86
			c-0.07-1.06-3.32-15.73-5.48-25.33l-0.06-0.25l7.59-23.05l1.76,0.58L33.21,59c0.28,1.23,1.54,6.86,2.78,12.49
			c0.81,3.7,1.45,6.66,1.9,8.78c1,4.74,1,4.74,0.22,5.08L37.39,85.65z"/>
	</g>
	<g>
		<path fill="#ffffff" d="M72.96,82.11l-11.9-21.39l0.43-0.24L40.43,35.1L6.41,33.35l27.1,25.96L7.69,65.03l-0.27-1.21l23.56-5.23
			L3.16,31.94l37.88,1.95l21.1,25.43l8.75-28.51l0.06-0.08l14.18-19.09l8.38,36.01l-0.13,0.21L72.96,82.11z M62.81,61.32L73,79.64
			l19.19-32.19l-7.67-32.93L72,31.39L62.81,61.32z"/>
	</g>
	<g>
		<polygon fill="#ffffff" points="37.41,85.76 6.38,65.13 3.5,32.21 24.96,9.12 55.83,1.6 56.42,4 26.26,11.34 6.06,33.08 
			8.74,63.73 38.04,83.22 75,79.65 75.24,82.1 		"/>
	</g>
	<g>
		<polygon fill="#ffffff" points="61.77,61.35 32.2,59.88 32.29,58.03 61.43,59.48 90.82,46.52 70.72,31.73 55.31,3.24 56.94,2.36 
			72.15,30.48 94.49,46.92 		"/>
	</g>
	<g>
		<polygon fill="#ffffff" points="40.83,36.41 24.83,10.72 26.4,9.74 40.63,32.58 55.65,1.65 85.13,12.21 84.51,13.95 56.59,3.95 		
			"/>
	</g>
	<g>
		
			<rect x="55.71" y="18.12" transform="matrix(0.0997 0.995 -0.995 0.0997 84.6522 -27.009)" fill="#ffffff" width="3.09" height="30.31"/>
	</g>
</g>
</svg>
