<?xml version="1.0" encoding="utf-8"?>
<!-- Generator: Adobe Illustrator 16.2.0, SVG Export Plug-In . SVG Version: 6.00 Build 0)  -->
<!DOCTYPE svg PUBLIC "-//W3C//DTD SVG 1.1//EN" "http://www.w3.org/Graphics/SVG/1.1/DTD/svg11.dtd">
<svg version="1.1" id="Layer_1" xmlns="http://www.w3.org/2000/svg" xmlns:xlink="http://www.w3.org/1999/xlink" x="0px" y="0px"
	 width="97.37px" height="109.39px" viewBox="0 0 97.37 109.39" enable-background="new 0 0 97.37 109.39" xml:space="preserve">
<g>
	<circle fill="#ffffff" cx="9.59" cy="99.8" r="9.59"/>
	<circle fill="#ffffff" cx="55.32" cy="99.8" r="9.59"/>
	<circle fill="#ffffff" cx="42.05" cy="73.94" r="9.59"/>
	<circle fill="#ffffff" cx="87.78" cy="73.94" r="9.59"/>
	<circle fill="#ffffff" cx="9.59" cy="35.45" r="9.59"/>
	<circle fill="#ffffff" cx="55.32" cy="35.45" r="9.59"/>
	<circle fill="#ffffff" cx="42.05" cy="9.59" r="9.59"/>
	<circle fill="#ffffff" cx="87.78" cy="9.59" r="9.59"/>
	<g>
		<path fill="#ffffff" d="M56.81,101.29H8.1V33.96h48.71V101.29z M11.08,98.31h42.75V36.95H11.08V98.31z"/>
	</g>
	<g>
		<path fill="#ffffff" d="M89.27,75.43H40.56V8.1h48.71V75.43z M43.54,72.45h42.75V11.08H43.54V72.45z"/>
	</g>
	<g>
		
			<rect x="24.33" y="1.77" transform="matrix(0.6231 0.7822 -0.7822 0.6231 27.3506 -11.706)" fill="#ffffff" width="2.98" height="41.5"/>
	</g>
	<g>
		
			<rect x="70.06" y="1.77" transform="matrix(0.6233 0.782 -0.782 0.6233 44.5698 -47.4671)" fill="#ffffff" width="2.98" height="41.5"/>
	</g>
	<g>
		
			<rect x="70.06" y="66.12" transform="matrix(0.6233 0.782 -0.782 0.6233 94.89 -23.2249)" fill="#ffffff" width="2.98" height="41.5"/>
	</g>
	<g>
		
			<rect x="24.33" y="66.12" transform="matrix(0.6231 0.7822 -0.7822 0.6231 77.6811 12.5491)" fill="#ffffff" width="2.98" height="41.5"/>
	</g>
</g>
</svg>
