<?xml version="1.0" encoding="utf-8"?>
<!-- Generator: Adobe Illustrator 16.2.0, SVG Export Plug-In . SVG Version: 6.00 Build 0)  -->
<!DOCTYPE svg PUBLIC "-//W3C//DTD SVG 1.1//EN" "http://www.w3.org/Graphics/SVG/1.1/DTD/svg11.dtd">
<svg version="1.1" id="Layer_1" xmlns="http://www.w3.org/2000/svg" xmlns:xlink="http://www.w3.org/1999/xlink" x="0px" y="0px"
	 width="59.03px" height="48.91px" viewBox="0 0 59.03 48.91" enable-background="new 0 0 59.03 48.91" xml:space="preserve">
<g>
	<path fill="#ececec" d="M54,0H5.02C2.25,0,0,2.24,0,5.02V33.9c0,2.78,2.25,5.03,5.02,5.03h32.27l17.26,9.98l-4.14-9.98H54
		c2.77,0,5.03-2.25,5.03-5.03V5.02C59.03,2.24,56.77,0,54,0z M29.41,26.1H7.26c-0.35,0-0.65-0.74-0.65-1.66
		c0-0.91,0.29-1.65,0.65-1.65h22.15c0.35,0,0.64,0.74,0.64,1.65C30.05,25.36,29.76,26.1,29.41,26.1z M37.62,17.92H7.33
		c-0.48,0-0.88-0.75-0.88-1.65c0-0.92,0.4-1.65,0.88-1.65h30.3c0.48,0,0.88,0.74,0.88,1.65C38.5,17.17,38.11,17.92,37.62,17.92z
		 M50.95,10.05H7.39c-0.7,0-1.26-0.74-1.26-1.65c0-0.92,0.56-1.65,1.26-1.65h43.56c0.7,0,1.26,0.74,1.26,1.65
		C52.21,9.31,51.65,10.05,50.95,10.05z"/>
</g>
</svg>
