<?xml version="1.0" encoding="utf-8"?>
<!-- Generator: Adobe Illustrator 16.2.0, SVG Export Plug-In . SVG Version: 6.00 Build 0)  -->
<!DOCTYPE svg PUBLIC "-//W3C//DTD SVG 1.1//EN" "http://www.w3.org/Graphics/SVG/1.1/DTD/svg11.dtd">
<svg version="1.1" id="Layer_1" xmlns="http://www.w3.org/2000/svg" xmlns:xlink="http://www.w3.org/1999/xlink" x="0px" y="0px"
	 width="76.32px" height="78.23px" viewBox="0 0 76.32 78.23" enable-background="new 0 0 76.32 78.23" xml:space="preserve">
<g>
	<g>
		<path fill="none" d="M36.67,38.24l-1.09,1.09c-0.32,0.32-0.26,0.91,0.14,1.31l0.3,0.3c0.4,0.4,0.99,0.47,1.31,0.14l1.12-1.12
			l17.7-16.96l-2.79-2.79L36.67,38.24z"/>
		<path fill="none" d="M60.11,18.13l-1.92-1.92c-0.3-0.3-0.8-0.3-1.1,0l-2.38,2.58l2.87,2.87l2.54-2.43
			C60.42,18.92,60.42,18.43,60.11,18.13z"/>
		<path fill="#ececec" d="M69.23,6.51l2.31,2.31l4.45-4.45c0.44-0.44,0.44-1.17,0-1.61l-2.42-2.42c-0.44-0.45-1.17-0.45-1.61,0
			l-4.45,4.45L69.23,6.51L69.23,6.51z"/>
		<polygon fill="#ececec" points="11,69.25 7.08,65.32 0,75.49 0.84,76.32 		"/>
		<path fill="#ececec" d="M71.05,10.07l-0.38-0.38l-2.31-2.31l0,0l-1.72-1.72l-0.38-0.38c0,0-28.83,17.66-58.67,58.51l4.95,4.95
			C53.39,38.9,71.05,10.07,71.05,10.07z M38.46,39.97l-1.12,1.12c-0.32,0.32-0.91,0.26-1.31-0.14l-0.3-0.3
			c-0.4-0.4-0.47-0.99-0.14-1.31l1.09-1.09l16.7-18.02l2.79,2.79L38.46,39.97z M57.58,21.66l-2.87-2.87l2.38-2.58
			c0.3-0.3,0.8-0.3,1.1,0l1.92,1.92c0.3,0.3,0.3,0.79,0,1.1L57.58,21.66z"/>
	</g>
	<polygon opacity="0.37" fill="#ececec" points="48.2,78.23 6.6,76.11 9.56,74.42 48.2,74.42 	"/>
</g>
</svg>
