<?xml version="1.0" encoding="utf-8"?>
<!-- Generator: Adobe Illustrator 16.2.0, SVG Export Plug-In . SVG Version: 6.00 Build 0)  -->
<!DOCTYPE svg PUBLIC "-//W3C//DTD SVG 1.1//EN" "http://www.w3.org/Graphics/SVG/1.1/DTD/svg11.dtd">
<svg version="1.1" id="Layer_1" xmlns="http://www.w3.org/2000/svg" xmlns:xlink="http://www.w3.org/1999/xlink" x="0px" y="0px"
	 width="266.33px" height="201.21px" viewBox="0 0 266.33 201.21" enable-background="new 0 0 266.33 201.21" xml:space="preserve">
<g>
	<path fill="none" d="M105.38,196.11c-0.56,0.72-0.97,1.15-0.97,1.7c0,0.54,0.41,0.97,0.97,0.97h23.61c0.52,0,0.95-0.44,0.95-0.97
		c0-0.55-0.42-0.97-0.95-1.7H105.38z"/>
	<polygon fill="none" points="185.15,110.46 109.12,151.1 108.89,151.22 108.65,151.09 34.3,110.54 34.3,179.07 185.15,179.07 	"/>
	<path fill="none" d="M91.51,196.11c-0.9,0-1.7,0.75-1.7,1.7c0,0.93,0.79,1.68,1.7,1.68c0.93,0,1.68-0.75,1.68-1.68
		C93.2,196.86,92.45,196.11,91.51,196.11z"/>
	<path fill="none" d="M138.66,197.8c0,0.54,0.44,0.97,1,0.97h72.43c0.53,0,0.96-0.44,0.96-0.97c0-0.55-0.42-0.97-0.96-0.97h-72.43
		C139.1,196.83,138.66,197.25,138.66,197.8z"/>
	<path fill="#ececec" d="M182.11,0l-1.42,19.19c0,0,63.8,1.59,66.98,70.99l18.66,0.24C266.32,90.41,268.13,7.94,182.11,0z"/>
	<path fill="#ececec" d="M181.16,33.22l-1.04,16.57c0,0,35.79,0.18,37.27,39.47l17.15,0.52C234.53,89.78,235.47,37.65,181.16,33.22z
		"/>
	<path fill="#ececec" d="M199.48,187.09V86.84c-0.58,0.97-1.1,1.96-1.94,2.78c-3.45,3.23-8.18,3.98-12.38,2.63v5.95l-11.21,6.98
		l-63.95,34.25L44.1,105.17l-9.81-6.1V86.81h144.08c-2.45-4.07-2.38-9.02,0.18-13H24.23c-2.39,0-4.35,1.94-4.35,4.37v108.91
		c0,0.16,0.17,0.27,0.19,0.45L0,191.69l0.27,2.78v4.8c0,1.05,0.89,1.94,1.94,1.94h213.2c1.05,0,1.92-0.89,1.92-1.94v-4.8l0.29-2.78
		l-18.53-3.66C199.18,187.69,199.48,187.46,199.48,187.09z M34.3,110.54l74.35,40.55l0.24,0.13l0.24-0.12l76.03-40.64v68.6H34.3
		V110.54z M91.51,199.49c-0.9,0-1.7-0.75-1.7-1.68c0-0.95,0.79-1.7,1.7-1.7c0.93,0,1.68,0.75,1.68,1.7
		C93.2,198.73,92.45,199.49,91.51,199.49z M128.98,198.78h-23.61c-0.56,0-0.97-0.44-0.97-0.97c0-0.55,0.41-0.97,0.97-1.7h23.61
		c0.52,0.72,0.95,1.15,0.95,1.7C129.93,198.34,129.51,198.78,128.98,198.78z M212.09,196.83c0.53,0,0.96,0.42,0.96,0.97
		c0,0.54-0.42,0.97-0.96,0.97h-72.43c-0.56,0-1-0.44-1-0.97c0-0.55,0.44-0.97,1-0.97H212.09z"/>
	<path fill="#ececec" d="M198.44,80.71c0-5.36-4.35-9.73-9.7-9.73c-5.37,0-9.72,4.37-9.72,9.73c0,5.34,4.35,9.71,9.72,9.71
		C194.09,90.41,198.44,86.05,198.44,80.71z"/>
</g>
</svg>
