<?xml version="1.0" encoding="utf-8"?>
<!-- Generator: Adobe Illustrator 16.2.0, SVG Export Plug-In . SVG Version: 6.00 Build 0)  -->
<!DOCTYPE svg PUBLIC "-//W3C//DTD SVG 1.1//EN" "http://www.w3.org/Graphics/SVG/1.1/DTD/svg11.dtd">
<svg version="1.1" id="Layer_1" xmlns="http://www.w3.org/2000/svg" xmlns:xlink="http://www.w3.org/1999/xlink" x="0px" y="0px"
	 width="58.87px" height="60.53px" viewBox="0 0 58.87 60.53" enable-background="new 0 0 58.87 60.53" xml:space="preserve">
<g>
	<g>
		<path fill="#3C4C55" d="M43.13,57.4c-5.21,2.35-9.73,3.13-15.99,3.13C12.7,60.53,0,50.18,0,33.14C0,15.4,12.96,0,32.52,0
			c15.4,0,26.35,10.53,26.35,25.14c0,12.78-7.13,20.78-16.52,20.78c-4.08,0-7.04-2.18-7.48-6.69H34.7
			c-2.79,4.35-6.61,6.69-11.31,6.69c-5.56,0-9.74-4.26-9.74-11.39c0-10.69,7.9-20.27,20.43-20.27c3.83,0,8.17,0.95,10.35,2.09
			l-2.61,16.18C40.96,37.66,41.57,40,44,40.09c3.74,0.17,8.44-4.61,8.44-14.7c0-11.4-7.31-20.09-20.78-20.09
			C18.27,5.31,6.7,15.65,6.7,32.35c0,14.61,9.21,22.78,22.17,22.78c4.43,0,9.21-0.95,12.7-2.69L43.13,57.4z M35.4,21.49
			c-0.71-0.18-1.66-0.36-2.71-0.36c-5.74,0-10.25,5.66-10.25,12.35c0,3.31,1.48,5.39,4.35,5.39c3.22,0,6.61-4.08,7.39-9.13
			L35.4,21.49z"/>
	</g>
</g>
</svg>
